<?xml version="1.0" encoding="UTF-8"?>
<svg id="Layer_2" data-name="Layer 2" xmlns="http://www.w3.org/2000/svg" viewBox="0 0 500 500">
  <defs>
    <style>
      .cls-1 {
        fill: #fce5eb;
      }

      .cls-2 {
        isolation: isolate;
      }

      .cls-3 {
        fill: #dc133c;
      }
    </style>
  </defs>
  <g id="Layer_2-2" data-name="Layer 2">
    <g id="Layer_1-2" data-name="Layer 1-2">
      <g>
        <rect class="cls-1" width="500" height="500" rx="82.66" ry="82.66"/>
        <g class="cls-2">
          <path class="cls-3" d="M250,128.59c15.32,0,27.78-12.46,27.78-27.78s-12.46-27.78-27.78-27.78-27.78,12.46-27.78,27.78,12.46,27.78,27.78,27.78"/>
          <path class="cls-3" d="M425.96,196.74c-30.79-65.3-123.57-92.11-176.11-40.05-112.68-99.24-314.5,87.81-76.69,267.42,6.21,4.69,15.06,3.5,19.66-2.78l.18-.24c4.45-6.09,3.21-14.66-2.82-19.19C-14.31,248.1,146.21,101.16,231.57,178.34c-50.13,68.8-41.55,112.79-31.24,133.56,10.63,21.43,32.28,35.27,55.14,35.27.65,0,1.29-.01,1.95-.03,21.83-.74,41.62-14.54,50.42-35.16,5.39-12.64,14.01-46.43-22.28-87.06-.51-.62-8.88-10.93-12.33-24.88-1.35-10.5-.36-31.91,27.73-40,.5-.14,1-.27,1.5-.4.82-.22,1.63-.43,2.49-.62,84.7-18.93,182.01,109.44,4.62,242.86-6.04,4.54-7.29,13.13-2.82,19.22,4.66,6.35,13.65,7.49,19.84,2.61,78.76-62.07,137.11-138.22,99.38-226.96M280.88,300.48c-4.35,10.2-13.95,17.02-24.46,17.38-12.51.47-23.81-6.82-29.84-18.98-5.08-10.24-12.95-38.89,18.96-89.09,5.65,19.82,17.19,33.52,17.74,34.16l.23.26c17.81,19.89,24.14,40.4,17.37,56.26"/>
        </g>
      </g>
    </g>
  </g>
</svg>